<svg width="48" height="48" viewBox="0 0 48 48" fill="none" xmlns="http://www.w3.org/2000/svg">
<g clip-path="url(#clip0_89_1109)">
<path d="M36.4932 31.753C34.9251 30.2048 32.9673 30.2048 31.4092 31.753C30.2205 32.9316 29.0319 34.1102 27.8633 35.3088C27.5437 35.6384 27.274 35.7083 26.8844 35.4886C26.1153 35.0691 25.2963 34.7295 24.5572 34.27C21.1112 32.1026 18.2245 29.3158 15.6675 26.1795C14.399 24.6213 13.2703 22.9532 12.4812 21.0754C12.3214 20.6959 12.3514 20.4461 12.661 20.1365C13.8496 18.9878 15.0083 17.8092 16.1769 16.6306C17.805 14.9925 17.805 13.0747 16.1669 11.4267C15.238 10.4878 14.3091 9.56884 13.3802 8.62993C12.4213 7.67105 11.4724 6.70218 10.5036 5.75329C8.93538 4.22507 6.97766 4.22507 5.41948 5.76328C4.22088 6.9419 3.07222 8.15049 1.85364 9.30914C0.724958 10.3779 0.155622 11.6864 0.0357622 13.2146C-0.154016 15.7017 0.455273 18.0489 1.31427 20.3363C3.07222 25.0708 5.7491 29.2758 8.99531 33.1314C13.3802 38.3453 18.6141 42.4705 24.7369 45.447C27.4937 46.7854 30.3504 47.8142 33.4568 47.984C35.5943 48.1039 37.4521 47.5645 38.9404 45.8965C39.9592 44.7578 41.1078 43.719 42.1866 42.6303C43.7847 41.0122 43.7947 39.0544 42.2066 37.4563C40.3088 35.5485 38.401 33.6507 36.4932 31.753ZM34.5855 23.7922L38.2712 23.163C37.6918 19.7769 36.0937 16.7105 33.6665 14.2733C31.0995 11.7063 27.8533 10.0882 24.2775 9.58881L23.7581 13.2945C26.5249 13.684 29.0419 14.9326 31.0296 16.9203C32.9074 18.7981 34.136 21.1753 34.5855 23.7922ZM40.3487 7.77093C36.0937 3.5159 30.71 0.829033 24.7669 0L24.2475 3.70568C29.3815 4.42484 34.0361 6.75212 37.7118 10.4178C41.1977 13.9038 43.4851 18.3086 44.3141 23.153L47.9998 22.5237C47.0309 16.9103 44.384 11.8162 40.3487 7.77093Z" fill="#F0E226"/>
</g>
<defs>
<clipPath id="clip0_89_1109">
<rect width="48" height="48" fill="white"/>
</clipPath>
</defs>
</svg>
