<svg width="16" height="16" viewBox="0 0 16 16" fill="none" xmlns="http://www.w3.org/2000/svg">
<path d="M4.62663 3.33302C4.62645 3.68665 4.48581 4.02571 4.23563 4.27564C3.98546 4.52556 3.64625 4.66587 3.29263 4.66569C2.93901 4.66551 2.59994 4.52487 2.35001 4.27469C2.10009 4.02452 1.95978 3.68531 1.95996 3.33169C1.96014 2.97807 2.10078 2.639 2.35096 2.38908C2.60113 2.13915 2.94034 1.99885 3.29396 1.99902C3.64758 1.9992 3.98665 2.13985 4.23658 2.39002C4.4865 2.64019 4.6268 2.9794 4.62663 3.33302ZM4.66663 5.65302H1.99996V13.9997H4.66663V5.65302ZM8.87996 5.65302H6.22663V13.9997H8.85329V9.61969C8.85329 7.17969 12.0333 6.95302 12.0333 9.61969V13.9997H14.6666V8.71302C14.6666 4.59969 9.95996 4.75302 8.85329 6.77302L8.87996 5.65302Z" fill="#E4E3DC"/>
</svg>
