<svg width="165" height="48" viewBox="0 0 165 48" fill="none" xmlns="http://www.w3.org/2000/svg">
<rect x="2.5" y="15.5" width="39" height="17" rx="8.5" stroke="#F0E226" stroke-width="5"/>
<path d="M66.288 34.052C58.944 34.052 54.792 30.332 54.792 24.5C54.792 18.692 58.944 14.972 66.288 14.972C73.632 14.972 77.784 18.692 77.784 24.5C77.784 30.332 73.632 34.052 66.288 34.052ZM66.288 29.54C69.6 29.54 71.496 27.668 71.496 24.5C71.496 21.356 69.6 19.484 66.312 19.436C62.952 19.388 61.08 21.26 61.08 24.5C61.08 27.668 62.952 29.54 66.288 29.54ZM79.5945 33.5V15.5H85.4745V29.012H96.7545V33.5H79.5945ZM101.514 15.5L106.314 22.82L111.066 15.5H117.81L109.434 27.164V33.5H102.882V27.164L94.458 15.5H101.514ZM124.753 15.5L129.553 22.82L134.305 15.5H141.049L132.673 27.164V33.5H126.121V27.164L117.697 15.5H124.753ZM156.792 33.5L151.848 27.716L147.312 33.5H140.328L148.2 24.164L140.688 15.5H147.816L152.328 20.852L156.888 15.5H163.848L155.808 24.332L163.944 33.5H156.792Z" fill="#F0E226"/>
</svg>
