<svg width="60" height="60" viewBox="0 0 60 60" fill="none" xmlns="http://www.w3.org/2000/svg">
<path fill-rule="evenodd" clip-rule="evenodd" d="M41.747 0.286227C42.1286 0.667863 42.1286 1.28662 41.747 1.66825L31.3817 12.0335L47.9662 28.6181L58.3314 18.2529C58.713 17.8713 59.3318 17.8713 59.7134 18.2529C60.0951 18.6346 60.0951 19.2533 59.7134 19.635L49.3483 30.0001L59.7141 40.366C60.0957 40.7476 60.0957 41.3663 59.7141 41.748C59.3324 42.1296 58.7137 42.1296 58.3321 41.748L47.9662 31.3822L31.3816 47.9668L41.7476 58.3328C42.1292 58.7144 42.1292 59.3331 41.7476 59.7148C41.366 60.0964 40.7472 60.0964 40.3656 59.7148L29.9996 49.3488L19.6347 59.7137C19.2531 60.0953 18.6343 60.0953 18.2527 59.7137C17.8711 59.3321 17.8711 58.7133 18.2527 58.3317L28.6176 47.9668L12.033 31.3822L1.66825 41.747C1.28662 42.1286 0.667863 42.1286 0.286227 41.747C-0.0954086 41.3654 -0.0954092 40.7466 0.286226 40.365L10.651 30.0002L0.286865 19.636C-0.0947705 19.2544 -0.0947699 18.6356 0.286866 18.254C0.668501 17.8724 1.28725 17.8724 1.66889 18.254L12.033 28.6182L28.6176 12.0335L18.2533 1.66923C17.8717 1.28759 17.8717 0.66884 18.2533 0.287204C18.635 -0.0944314 19.2537 -0.0944313 19.6354 0.287205L29.9997 10.6515L40.3649 0.286227C40.7466 -0.0954089 41.3653 -0.095409 41.747 0.286227ZM29.9997 13.4156L13.4151 30.0002L29.9996 46.5847L46.5842 30.0001L29.9997 13.4156Z" fill="url(#paint0_radial_64_14)"/>
<path d="M30 14C30 22.8366 22.8366 30 14 30C22.8366 30 30 37.1634 30 46C30 37.1634 37.1634 30 46 30C37.1634 30 30 22.8366 30 14Z" fill="url(#paint1_radial_64_14)"/>
<defs>
<radialGradient id="paint0_radial_64_14" cx="0" cy="0" r="1" gradientUnits="userSpaceOnUse" gradientTransform="translate(30.0002 30.0005) rotate(90) scale(33.2267 33.2263)">
<stop stop-color="white"/>
<stop offset="1" stop-color="white" stop-opacity="0"/>
</radialGradient>
<radialGradient id="paint1_radial_64_14" cx="0" cy="0" r="1" gradientUnits="userSpaceOnUse" gradientTransform="translate(30 30) rotate(90) scale(18.5)">
<stop stop-color="#F0E226"/>
<stop offset="1" stop-color="white" stop-opacity="0"/>
</radialGradient>
</defs>
</svg>
